<?xml version="1.0" encoding="utf-8"?>
<!-- Generator: Adobe Illustrator 27.9.0, SVG Export Plug-In . SVG Version: 6.00 Build 0)  -->
<svg version="1.1" id="Layer_1" xmlns="http://www.w3.org/2000/svg" xmlns:xlink="http://www.w3.org/1999/xlink" x="0px" y="0px"
	 viewBox="0 0 437 420" style="enable-background:new 0 0 437 420;" xml:space="preserve">
<style type="text/css">
	.st0{fill:#FFFFFF;}
</style>
<g>
	<path class="st0" d="M30.4,209.38c-6,0-10.9-1.9-14.7-5.7c-3.8-3.8-5.7-8.7-5.7-14.7V29.38c0-6,1.9-10.9,5.7-14.7
		c3.8-3.8,8.7-5.7,14.7-5.7h34v21.6H39.8c-3.6,0-5.4,2-5.4,6v145.2c0,4,1.8,6,5.4,6h24.6v21.6H30.4z"/>
	<path class="st0" d="M78.7,197.83v-140h49l24.2,122h3.6l24.2-122h49v140h-25.6V77.22h-3.6l-24,120.6h-43.6l-24-120.6h-3.6v120.6
		H78.7z"/>
	<path class="st0" d="M245.8,197.83v-23.2h18.4v-93.6h-18.4v-23.2h57.6c18.8,0,33.1,4.77,42.9,14.3c9.8,9.53,14.7,23.7,14.7,42.5
		v26.4c0,18.8-4.9,32.97-14.7,42.5c-9.8,9.53-24.1,14.3-42.9,14.3H245.8z M290.6,173.83h13.2c10.67,0,18.47-2.8,23.4-8.4
		c4.93-5.6,7.4-13.47,7.4-23.6v-28c0-10.27-2.47-18.17-7.4-23.7c-4.93-5.53-12.73-8.3-23.4-8.3h-13.2V173.83z"/>
	<path class="st0" d="M168,361.82v-140h90v24h-63.6v33.4h58v24h-58v34.6h64.8v24H168z"/>
	<path class="st0" d="M272.84,361.82v-140h88v24h-61.6v33.8h56.8v24h-56.8v58.2H272.84z"/>
	<path class="st0" d="M372.6,411.02v-21.6h24.6c3.6,0,5.4-2,5.4-6v-145.2c0-4-1.8-6-5.4-6h-24.6v-21.6h34c6,0,10.9,1.9,14.7,5.7
		s5.7,8.7,5.7,14.7v159.6c0,6-1.9,10.9-5.7,14.7s-8.7,5.7-14.7,5.7H372.6z"/>
</g>
</svg>
